<?xml version="1.0" encoding="UTF-8" standalone="no"?>
<!DOCTYPE svg PUBLIC "-//W3C//DTD SVG 1.1//EN" "http://www.w3.org/Graphics/SVG/1.1/DTD/svg11.dtd">
<svg width="100%" height="100%" viewBox="0 0 40 40" version="1.1" xmlns="http://www.w3.org/2000/svg" xmlns:xlink="http://www.w3.org/1999/xlink" xml:space="preserve" style="fill-rule:evenodd;clip-rule:evenodd;stroke-linejoin:round;stroke-miterlimit:2;">
    <g transform="matrix(1,0,0,1,-1147,-1264.03)">
        <g transform="matrix(1,0,0,1,686.364,132.458)">
            <g id="vacuum-cleaner" transform="matrix(0.0863931,0,0,0.0863931,480.636,1151.57)">
                <g transform="matrix(1,0,0,1,-231.5,-231.5)">
                    <g>
                        <path d="M423.5,408L415,408L415,399.5C415,390.953 408.047,384 399.5,384L399,384L399,271.5C399,121.794 277.206,0 127.5,0L113.98,0C51.131,0 0,51.151 0,114.023C0,144.47 11.856,173.092 33.384,194.615L48.561,209.792C33.094,231.808 24,258.61 24,287.5L24,423.5C24,436.458 34.542,447 47.5,447L111.728,447C125.037,457.038 141.584,463 159.5,463C203.336,463 239,427.336 239,383.5C239,365.584 233.038,349.037 223,335.728L223,175.5C223,162.542 212.458,152 199.5,152L159.5,152C130.61,152 103.808,161.094 81.792,176.561L66.615,161.384C53.966,148.735 47,131.9 47,113.98C47,77.047 77.047,47 113.98,47L127.5,47C251.29,47 352,147.71 352,271.5L352,384L351.5,384C342.953,384 336,390.953 336,399.5L336,409.234C326.71,412.372 320,421.164 320,431.5L320,455.5C320,459.642 323.358,463 327.5,463L455.5,463C459.642,463 463,459.642 463,455.5L463,447.5C463,425.72 445.28,408 423.5,408ZM152,167.24L152,176.691C152,180.91 148.736,184.467 144.238,185.149C134.027,186.697 124.056,189.803 114.603,194.378C93.648,204.521 76.522,221.648 66.378,242.602C59.492,256.832 56,271.937 56,287.5L56,359.5C56,364.187 52.187,368 47.5,368L39,368L39,287.5C39,223.576 89.037,171.127 152,167.24ZM39,423.5L39,415L86.522,415C89.166,421.101 92.557,426.802 96.572,432L47.5,432C42.813,432 39,428.187 39,423.5ZM159.5,448C123.935,448 95,419.065 95,383.5C95,347.935 123.935,319 159.5,319C195.065,319 224,347.935 224,383.5C224,419.065 195.065,448 159.5,448ZM208,175.5L208,320.572C194.567,310.195 177.748,304 159.5,304C115.664,304 80,339.664 80,383.5C80,389.157 80.604,394.674 81.733,400L39,400L39,383L47.5,383C60.458,383 71,372.458 71,359.5L71,287.5C71,274.219 73.988,261.312 79.88,249.138C88.558,231.21 103.211,216.558 121.138,207.88C129.236,203.961 137.764,201.302 146.487,199.979C158.373,198.178 167,188.383 167,176.691L167,167L199.5,167C204.187,167 208,170.813 208,175.5ZM113.98,32C68.776,32 32,68.776 32,113.98C32,135.906 40.527,156.508 56.009,171.99L69.934,185.915C65.683,189.668 61.668,193.682 57.915,197.934L43.99,184.009C25.295,165.318 15,140.463 15,114.023C15,59.422 59.402,15 113.98,15L127.5,15C191.461,15 250.026,38.535 294.998,77.396L282.941,89.453C241.076,53.654 186.773,32 127.5,32L113.98,32ZM294.044,99.563L306.059,87.548C310.591,91.948 314.96,96.514 319.159,101.235L307.123,113.271C302.943,108.531 298.581,103.958 294.044,99.563ZM316.73,124.869C316.754,124.846 316.78,124.826 316.803,124.803L328.842,112.764C363.366,156.462 384,211.615 384,271.5L384,384L367,384L367,271.5C367,216.304 348.221,165.416 316.73,124.869ZM351.5,399L399.5,399C399.776,399 400,399.224 400,399.5L400,408L351,408L351,399.5C351,399.224 351.224,399 351.5,399ZM448,448L335,448L335,431.5C335,426.813 338.813,423 343.5,423L423.5,423C437.009,423 448,433.991 448,447.5L448,448Z" style="fill:rgb(47,118,196);fill-rule:nonzero;"/>
                        <path d="M159.5,336C133.309,336 112,357.309 112,383.5C112,409.691 133.309,431 159.5,431C185.691,431 207,409.691 207,383.5C207,357.309 185.691,336 159.5,336ZM159.5,416C141.58,416 127,401.42 127,383.5C127,365.58 141.58,351 159.5,351C177.42,351 192,365.58 192,383.5C192,401.42 177.42,416 159.5,416Z" style="fill:rgb(0,187,242);fill-rule:nonzero;"/>
                    </g>
                </g>
            </g>
        </g>
    </g>
</svg>
