<?xml version="1.0" encoding="UTF-8" standalone="no"?>
<!DOCTYPE svg PUBLIC "-//W3C//DTD SVG 1.1//EN" "http://www.w3.org/Graphics/SVG/1.1/DTD/svg11.dtd">
<svg width="100%" height="100%" viewBox="0 0 39 36" version="1.1" xmlns="http://www.w3.org/2000/svg" xmlns:xlink="http://www.w3.org/1999/xlink" xml:space="preserve" style="fill-rule:evenodd;clip-rule:evenodd;stroke-linejoin:round;stroke-miterlimit:2;">
    <g transform="matrix(1,0,0,1,-820,-1075)">
        <g transform="matrix(1,0,0,1,353.585,-65.5)">
            <g id="clean-floor" transform="matrix(0.116491,0,0,0.105319,485.915,1158.13)">
                <g transform="matrix(1,0,0,1,-167.395,-167.395)">
                    <clipPath id="_clip1">
                        <rect x="0" y="0" width="334.791" height="334.791"/>
                    </clipPath>
                    <g clip-path="url(#_clip1)">
                        <g>
                            <path d="M151.021,222.781L50.855,222.781L0,300.413L142.34,300.413L151.021,222.781Z" style="fill:none;fill-rule:nonzero;stroke:rgb(47,118,196);stroke-width:14.67px;"/>
                            <g transform="matrix(1,0,0,1,0,-13.755)">
                                <path d="M214.283,163.43L178.08,163.43L182.589,203.755L231,203.755C230.956,203.755 227.201,176.974 214.283,163.43Z" style="fill:none;fill-rule:nonzero;stroke:rgb(47,118,196);stroke-width:14.67px;"/>
                            </g>
                            <g transform="matrix(1,0,0,1,0,-13.755)">
                                <path d="M157.656,163.43L89.739,163.43L63.321,203.755L153.147,203.755L157.656,163.43Z" style="fill:none;fill-rule:nonzero;stroke:rgb(47,118,196);stroke-width:14.67px;"/>
                            </g>
                            <g transform="matrix(1,0,0,1,0,-13.755)">
                                <path d="M248.027,167.966C246.879,169.571 245.808,171.273 244.823,173.095C238.481,184.881 235.408,203.755 232.487,203.755L271.474,203.755L248.027,167.966Z" style="fill:none;fill-rule:nonzero;stroke:rgb(47,118,196);stroke-width:14.67px;"/>
                            </g>
                            <path d="M184.721,222.781L193.408,300.413L334.791,300.413L283.935,222.781L184.721,222.781Z" style="fill:none;fill-rule:nonzero;stroke:rgb(47,118,196);stroke-width:14.67px;"/>
                            <g transform="matrix(0.853572,0,0,1,28.8053,-13.755)">
                                <path d="M196.562,102.752C129.254,102.752 128.351,34.378 128.351,34.378C128.351,100.871 59.977,102.752 59.977,102.752C115.929,102.839 126.138,145.579 127.965,163.43C128.378,167.449 128.367,170.218 128.351,170.941C128.373,170.218 128.487,167.449 129.069,163.43C131.631,145.579 143.341,102.839 196.72,102.752L196.562,102.752Z" style="fill:none;fill-rule:nonzero;stroke:rgb(0,187,242);stroke-width:15.78px;"/>
                            </g>
                            <g transform="matrix(0.904083,0,0,1,17.1942,-13.755)">
                                <path d="M285.578,145.095C233.183,145.095 232.482,91.874 232.482,91.874C232.482,143.632 179.261,145.095 179.261,145.095C200.963,145.128 216.5,151.855 221.446,163.43C229.208,181.598 232.52,201.944 232.487,203.755C232.541,201.944 238.3,187.693 244.725,163.43C247.963,151.203 265.018,145.128 285.703,145.095L285.578,145.095Z" style="fill:none;fill-rule:nonzero;stroke:rgb(0,187,242);stroke-width:15.39px;"/>
                            </g>
                        </g>
                    </g>
                </g>
            </g>
        </g>
    </g>
</svg>
