<?xml version="1.0" encoding="UTF-8" standalone="no"?>
<!DOCTYPE svg PUBLIC "-//W3C//DTD SVG 1.1//EN" "http://www.w3.org/Graphics/SVG/1.1/DTD/svg11.dtd">
<svg width="100%" height="100%" viewBox="0 0 41 32" version="1.1" xmlns="http://www.w3.org/2000/svg" xmlns:xlink="http://www.w3.org/1999/xlink" xml:space="preserve" style="fill-rule:evenodd;clip-rule:evenodd;stroke-linejoin:round;stroke-miterlimit:2;">
    <g transform="matrix(1,0,0,1,-467.381,-1076.25)">
        <g transform="matrix(1,0,0,1,3.04047,-65.5202)">
            <g id="Truck" transform="matrix(0.0918989,0,0,0.0918989,484.65,1157.3)">
                <g transform="matrix(1,0,0,1,-221,-169)">
                    <clipPath id="_clip1">
                        <rect x="0" y="0" width="442" height="338"/>
                    </clipPath>
                    <g clip-path="url(#_clip1)">
                        <g>
                            <g transform="matrix(1,0,0,1,0,-53.103)">
                                <path d="M441.064,206.397L407.619,134.621C405.977,131.098 402.442,128.845 398.555,128.845L305.874,128.845C300.352,128.845 295.874,133.322 295.874,138.845C295.874,144.368 300.352,148.845 305.874,148.845L392.182,148.845L422,212.836L422,312.397L411.247,312.397C406.409,280.456 378.77,255.897 345.5,255.897C312.23,255.897 284.591,280.456 279.753,312.397L162.247,312.397C161.172,305.3 158.958,298.577 155.82,292.397L275.875,292.397C281.397,292.397 285.875,287.92 285.875,282.397L285.875,63.103C285.875,57.58 281.397,53.103 275.875,53.103L10,53.103C4.478,53.103 0,57.58 0,63.103L0,282.398C0,287.921 4.478,292.398 10,292.398L37.181,292.398C34.043,298.578 31.828,305.301 30.754,312.398L10,312.398C4.478,312.398 0,316.875 0,322.398C0,327.921 4.478,332.398 10,332.398L30.753,332.398C35.591,364.339 63.23,388.898 96.5,388.898C129.77,388.898 157.409,364.339 162.247,332.398L279.753,332.398C284.591,364.339 312.23,388.898 345.5,388.898C378.77,388.898 406.409,364.339 411.247,332.398L432,332.398C437.522,332.398 442,327.921 442,322.398L442,210.621C442,209.162 441.681,207.72 441.064,206.397ZM20,73.103L265.874,73.103L265.874,272.398L140.271,272.398C128.565,262.138 113.252,255.898 96.5,255.898C79.748,255.898 64.435,262.138 52.729,272.398L20,272.398L20,73.103ZM96.5,368.897C70.859,368.897 50,348.037 50,322.397C50,296.757 70.859,275.897 96.5,275.897C122.141,275.897 143,296.757 143,322.397C143,348.037 122.141,368.897 96.5,368.897ZM345.5,368.897C319.859,368.897 299,348.037 299,322.397C299,296.757 319.859,275.897 345.5,275.897C371.136,275.897 391.993,296.75 392,322.384C392,322.388 391.999,322.393 391.999,322.397C391.999,322.401 392,322.406 392,322.41C391.993,348.045 371.136,368.897 345.5,368.897Z" style="fill:rgb(47,118,196);fill-rule:nonzero;"/>
                            </g>
                            <g transform="matrix(1,0,0,1,0,-50.621)">
                                <path d="M310.215,220.621L392.526,220.621C398.049,220.621 402.526,216.144 402.526,210.621C402.526,208.886 402.085,207.254 401.307,205.831L384.127,168.961C382.485,165.438 378.95,163.185 375.063,163.185L310.215,163.185C304.693,163.185 300.215,167.662 300.215,173.185L300.215,210.621C300.215,216.144 304.693,220.621 310.215,220.621ZM320.215,183.186L368.69,183.186L376.815,200.622L320.215,200.622L320.215,183.186Z" style="fill:rgb(0,187,242);fill-rule:nonzero;"/>
                            </g>
                        </g>
                    </g>
                </g>
            </g>
        </g>
    </g>
</svg>
