<?xml version="1.0" encoding="UTF-8" standalone="no"?>
<!DOCTYPE svg PUBLIC "-//W3C//DTD SVG 1.1//EN" "http://www.w3.org/Graphics/SVG/1.1/DTD/svg11.dtd">
<svg width="100%" height="100%" viewBox="0 0 40 40" version="1.1" xmlns="http://www.w3.org/2000/svg" xmlns:xlink="http://www.w3.org/1999/xlink" xml:space="preserve" style="fill-rule:evenodd;clip-rule:evenodd;stroke-linejoin:round;stroke-miterlimit:2;">
    <g transform="matrix(1,0,0,1,-818.959,-1262.5)">
        <g transform="matrix(1,0,0,1,352.79,130.313)">
            <g id="work-organization" transform="matrix(0.108124,0,0,0.108124,486.169,1152.19)">
                <g transform="matrix(1,0,0,1,-184.973,-184.973)">
                    <clipPath id="_clip1">
                        <rect x="0" y="0" width="369.946" height="369.946"/>
                    </clipPath>
                    <g clip-path="url(#_clip1)">
                        <path d="M330.15,343.082C330.15,348.053 326.121,352.082 321.15,352.082L282.077,352.082C277.106,352.082 273.077,348.053 273.077,343.082C273.077,338.111 277.106,334.082 282.077,334.082L321.15,334.082C326.121,334.082 330.15,338.112 330.15,343.082ZM122.076,171.876C126.643,173.846 131.936,171.744 133.906,167.181L147.625,135.405C155.077,118.146 163.263,111.107 175.877,111.107L194.072,111.107C206.686,111.107 214.872,118.147 222.324,135.405L236.043,167.182C237.511,170.583 240.827,172.617 244.311,172.617C245.5,172.617 246.711,172.379 247.874,171.877C252.437,169.907 254.54,164.61 252.569,160.047L238.85,128.27C232.331,113.175 220.598,93.107 194.073,93.107L175.878,93.107C149.353,93.107 137.619,113.175 131.101,128.27L117.382,160.047C115.41,164.609 117.512,169.905 122.076,171.876ZM369.207,339.516L355.489,307.737C348.969,292.642 337.236,272.575 310.715,272.575L292.518,272.575C265.995,272.575 254.259,292.642 247.739,307.739L234.022,339.516C232.051,344.079 234.155,349.376 238.718,351.346C239.88,351.847 241.09,352.085 242.281,352.085C245.763,352.085 249.08,350.051 250.548,346.649L264.265,314.874C271.719,297.615 279.906,290.575 292.519,290.575L310.716,290.575C323.327,290.575 331.512,297.615 338.965,314.872L352.683,346.649C354.652,351.212 359.943,353.316 364.513,351.345C369.075,349.376 371.177,344.08 369.207,339.516ZM122.208,307.739C115.692,292.644 103.961,272.575 77.433,272.575L59.234,272.575C32.711,272.575 20.977,292.642 14.458,307.739L0.74,339.516C-1.231,344.079 0.872,349.376 5.435,351.346C10.002,353.314 15.296,351.213 17.265,346.65L30.983,314.874C38.436,297.615 46.622,290.575 59.234,290.575L77.433,290.575C90.048,290.575 98.233,297.615 105.683,314.872L119.4,346.65C120.868,350.051 124.183,352.086 127.667,352.086C128.857,352.086 130.067,351.848 131.229,351.347C135.792,349.377 137.896,344.08 135.925,339.517L122.208,307.739ZM87.873,334.082L48.796,334.082C43.825,334.082 39.796,338.111 39.796,343.082C39.796,348.053 43.825,352.082 48.796,352.082L87.872,352.082C92.843,352.082 96.872,348.053 96.872,343.082C96.872,338.111 92.843,334.082 87.873,334.082ZM196.704,334.082L173.243,334.082C168.272,334.082 164.243,338.111 164.243,343.082C164.243,348.053 168.272,352.082 173.243,352.082L196.704,352.082C201.675,352.082 205.704,348.053 205.704,343.082C205.704,338.111 201.674,334.082 196.704,334.082ZM204.511,172.612C209.482,172.612 213.511,168.583 213.511,163.612C213.511,158.641 209.482,154.612 204.511,154.612L165.435,154.612C160.464,154.612 156.435,158.641 156.435,163.612C156.435,168.583 160.464,172.612 165.435,172.612L204.511,172.612ZM221.513,282.298C213.846,275.847 204.614,272.576 194.072,272.576L175.877,272.576C165.332,272.576 156.099,275.847 148.436,282.3C144.633,285.501 144.146,291.178 147.347,294.981C149.127,297.095 151.673,298.185 154.237,298.185C156.283,298.185 158.341,297.491 160.029,296.07C164.419,292.374 169.603,290.577 175.878,290.577L194.073,290.577C200.345,290.577 205.531,292.374 209.925,296.072C213.731,299.272 219.406,298.783 222.607,294.98C225.805,291.175 225.316,285.498 221.513,282.298Z" style="fill:rgb(47,118,196);fill-rule:nonzero;"/>
                        <g transform="matrix(1,0,0,1,35.1939,195.027)">
                            <path d="M149.781,0C168.072,0 182.921,14.85 182.921,33.14C182.921,51.43 168.072,66.28 149.781,66.28C131.491,66.28 116.641,51.43 116.641,33.14C116.641,14.85 131.491,0 149.781,0ZM149.781,16.57C158.927,16.57 166.351,23.995 166.351,33.14C166.351,42.285 158.927,49.71 149.781,49.71C140.636,49.71 133.211,42.285 133.211,33.14C133.211,23.995 140.636,16.57 149.781,16.57Z" style="fill:rgb(0,187,242);"/>
                        </g>
                        <g transform="matrix(1,0,0,1,35.1939,15.9961)">
                            <path d="M149.781,0C168.072,0 182.921,14.85 182.921,33.14C182.921,51.43 168.072,66.28 149.781,66.28C131.491,66.28 116.641,51.43 116.641,33.14C116.641,14.85 131.491,0 149.781,0ZM149.781,16.57C158.927,16.57 166.351,23.995 166.351,33.14C166.351,42.285 158.927,49.71 149.781,49.71C140.636,49.71 133.211,42.285 133.211,33.14C133.211,23.995 140.636,16.57 149.781,16.57Z" style="fill:rgb(0,187,242);"/>
                        </g>
                        <g transform="matrix(1,0,0,1,-81.5342,195.027)">
                            <path d="M149.781,0C168.072,0 182.921,14.85 182.921,33.14C182.921,51.43 168.072,66.28 149.781,66.28C131.491,66.28 116.641,51.43 116.641,33.14C116.641,14.85 131.491,0 149.781,0ZM149.781,16.57C158.927,16.57 166.351,23.995 166.351,33.14C166.351,42.285 158.927,49.71 149.781,49.71C140.636,49.71 133.211,42.285 133.211,33.14C133.211,23.995 140.636,16.57 149.781,16.57Z" style="fill:rgb(0,187,242);"/>
                        </g>
                        <g transform="matrix(1,0,0,1,151.32,195.027)">
                            <path d="M149.781,0C168.072,0 182.921,14.85 182.921,33.14C182.921,51.43 168.072,66.28 149.781,66.28C131.491,66.28 116.641,51.43 116.641,33.14C116.641,14.85 131.491,0 149.781,0ZM149.781,16.57C158.927,16.57 166.351,23.995 166.351,33.14C166.351,42.285 158.927,49.71 149.781,49.71C140.636,49.71 133.211,42.285 133.211,33.14C133.211,23.995 140.636,16.57 149.781,16.57Z" style="fill:rgb(0,187,242);"/>
                        </g>
                    </g>
                </g>
            </g>
        </g>
    </g>
</svg>
