<?xml version="1.0" encoding="UTF-8" standalone="no"?>
<!DOCTYPE svg PUBLIC "-//W3C//DTD SVG 1.1//EN" "http://www.w3.org/Graphics/SVG/1.1/DTD/svg11.dtd">
<svg width="100%" height="100%" viewBox="0 0 52 52" version="1.1" xmlns="http://www.w3.org/2000/svg" xmlns:xlink="http://www.w3.org/1999/xlink" xml:space="preserve" style="fill-rule:evenodd;clip-rule:evenodd;stroke-linejoin:round;stroke-miterlimit:2;">
    <g transform="matrix(1,0,0,1,-1140,-1062.18)">
        <g transform="matrix(1,0,0,1,683.512,-68.1224)">
            <g id="price-tag" transform="matrix(0.0576124,0.0576124,-0.0480392,0.0480392,482.273,1156.09)">
                <g transform="matrix(1,0,0,1,-244.05,-244.05)">
                    <clipPath id="_clip1">
                        <rect x="0" y="0" width="488.1" height="488.1"/>
                    </clipPath>
                    <g clip-path="url(#_clip1)">
                        <g>
                            <path d="M360.8,174.6L262.7,88.7C257.5,84.2 250.9,81.7 244,81.7C237.1,81.7 230.5,84.2 225.3,88.7L190.5,119.2C188.5,111.8 187.4,104 187.4,95.9C187.4,76.3 193.6,57.9 204.8,44.2C215.4,31.2 229.4,24 244,24C275.2,24 300.6,56.2 300.6,95.9C300.6,102.5 306,107.9 312.6,107.9C319.2,107.9 324.6,102.5 324.6,95.9C324.6,43 288.4,0 244,0C222,0 201.5,10.3 186.2,29C171.5,47 163.4,70.7 163.4,95.9C163.4,110.1 166,123.8 170.9,136.4L127.3,174.6C116.4,184.2 110.1,198 110.1,212.5L110.1,427.9C110.1,461.1 137.1,488.1 170.3,488.1L317.8,488.1C351,488.1 378,461.1 378,427.9L378,212.5C378,198 371.7,184.2 360.8,174.6ZM354,427.9C354,447.9 337.8,464.1 317.8,464.1L170.2,464.1C150.2,464.1 134,447.9 134,427.9L134,212.5C134,204.9 137.3,197.6 143,192.6L182.5,158C183.7,159.6 184.9,161.2 186.1,162.8C201.4,181.5 221.9,191.8 243.9,191.8C250.5,191.8 255.9,186.4 255.9,179.8C255.9,173.2 250.5,167.8 243.9,167.8C229.2,167.8 215.3,160.6 204.7,147.6C203.3,145.8 201.9,144 200.6,142.1L241,106.7C242,105.8 243.1,105.6 243.9,105.6C244.7,105.6 245.8,105.8 246.8,106.7L344.9,192.6C350.6,197.6 353.9,204.9 353.9,212.5L353.9,427.9L354,427.9Z" style="fill:rgb(47,118,196);fill-rule:nonzero;"/>
                            <path d="M257.2,303.5L230.8,303.5C221.5,303.5 213.9,295.9 213.9,286.6C213.9,277.3 221.5,269.7 230.8,269.7L277.3,269.7C283.9,269.7 289.3,264.3 289.3,257.7C289.3,251.1 283.9,245.7 277.3,245.7L256,245.7L256,230.1C256,223.5 250.6,218.1 244,218.1C237.4,218.1 232,223.5 232,230.1L232,245.7L230.8,245.7C208.2,245.7 189.9,264.1 189.9,286.6C189.9,309.2 208.3,327.5 230.8,327.5L257.2,327.5C266.5,327.5 274.1,335.1 274.1,344.4C274.1,353.7 266.5,361.3 257.2,361.3L209.8,361.3C203.2,361.3 197.8,366.7 197.8,373.3C197.8,379.9 203.2,385.3 209.8,385.3L232,385.3L232,401.2C232,407.8 237.4,413.2 244,413.2C250.6,413.2 256,407.8 256,401.2L256,385.3L257.7,385.3C280,385 298.1,366.8 298.1,344.4C298.1,321.8 279.7,303.5 257.2,303.5Z" style="fill:rgb(0,187,242);fill-rule:nonzero;"/>
                        </g>
                    </g>
                </g>
            </g>
        </g>
    </g>
</svg>
