<?xml version="1.0" encoding="UTF-8" standalone="no"?>
<!DOCTYPE svg PUBLIC "-//W3C//DTD SVG 1.1//EN" "http://www.w3.org/Graphics/SVG/1.1/DTD/svg11.dtd">
<svg width="100%" height="100%" viewBox="0 0 39 39" version="1.1" xmlns="http://www.w3.org/2000/svg" xmlns:xlink="http://www.w3.org/1999/xlink" xml:space="preserve" style="fill-rule:evenodd;clip-rule:evenodd;stroke-linejoin:round;stroke-miterlimit:2;">
    <g transform="matrix(1,0,0,1,-467.381,-1267.28)">
        <g transform="matrix(1,0,0,1,-4.34023,130.088)">
            <g id="bleach-and-soup" transform="matrix(0.0913901,0,0,0.0913901,490.83,1156.3)">
                <g transform="matrix(1,0,0,1,-209.094,-209.094)">
                    <path id="XMLID_452_" d="M198.791,304.688C199.641,301.21 200.092,297.578 200.092,293.842C200.092,268.655 179.601,248.164 154.414,248.164C129.227,248.164 108.737,268.655 108.737,293.842C108.737,297.028 109.064,300.137 109.688,303.14L84.503,303.14C52.784,303.14 26.98,328.945 26.98,360.663C26.98,392.381 52.785,418.185 84.503,418.185L185.551,418.185C217.269,418.185 243.073,392.38 243.073,360.663C243.074,333.813 224.229,310.744 198.791,304.688ZM154.414,262.165C171.881,262.165 186.092,276.376 186.092,293.843C186.092,311.31 171.881,325.521 154.414,325.521C136.947,325.521 122.737,311.31 122.737,293.843C122.737,276.376 136.947,262.165 154.414,262.165ZM185.551,404.187L84.503,404.187C65.742,404.187 49.715,392.253 43.612,375.581C50.82,378.741 58.644,380.412 66.595,380.412L203.457,380.412C207.323,380.412 210.457,377.278 210.457,373.412C210.457,369.546 207.323,366.412 203.457,366.412L66.596,366.412C57.426,366.412 48.474,363.466 41.057,358.06C42.409,335.269 61.379,317.141 84.503,317.141L115.136,317.141C123.109,330.531 137.731,339.521 154.413,339.521C170.809,339.521 185.213,330.839 193.272,317.831C213.669,321.523 229.073,339.549 229.073,360.665C229.074,384.662 209.549,404.187 185.551,404.187ZM391.205,253.213C390.45,223.505 384.182,211.981 371.693,189.02C370.116,186.12 368.426,183.015 366.623,179.643L311.074,75.809C309.995,73.791 308.95,71.759 307.914,69.745C300.887,56.079 293.036,40.813 276.678,37.279L276.678,7C276.678,3.134 273.544,0 269.678,0L212.78,0C208.914,0 205.78,3.134 205.78,7L205.78,37.19C187.781,40.534 174.06,56.106 170.638,78.03L164.986,114.232C164.389,118.052 167.003,121.631 170.822,122.228C174.646,122.83 178.222,120.211 178.818,116.392L184.47,80.189C186.776,65.42 196.536,50.519 213.145,50.519L269.308,50.519C281.658,50.519 287.292,60.257 295.463,76.146C296.533,78.227 297.613,80.327 298.729,82.412L354.278,186.246C356.098,189.648 357.802,192.781 359.394,195.709C371.507,217.98 376.529,227.21 377.207,253.48L377.207,365.229C377.207,386.71 359.729,404.187 338.247,404.187L241.814,404.187C237.948,404.187 234.814,407.321 234.814,411.187C234.814,415.053 237.948,418.187 241.814,418.187L338.247,418.187C367.449,418.187 391.207,394.43 391.207,365.229L391.207,253.391C391.207,253.331 391.206,253.272 391.205,253.213ZM262.677,36.52L219.78,36.52L219.78,14L262.677,14L262.677,36.52ZM165.314,202.904L161.33,228.432C160.791,231.886 157.812,234.354 154.423,234.354C154.064,234.354 153.7,234.327 153.335,234.269C149.515,233.673 146.901,230.093 147.498,226.274L151.482,200.746C152.078,196.925 155.664,194.302 159.477,194.909C163.297,195.505 165.911,199.085 165.314,202.904ZM147.414,279.441C147.414,275.575 150.548,272.441 154.414,272.441C166.215,272.441 175.815,282.042 175.815,293.841C175.815,297.707 172.681,300.841 168.815,300.841C164.949,300.841 161.815,297.707 161.815,293.841C161.815,289.76 158.495,286.441 154.414,286.441C150.547,286.441 147.414,283.308 147.414,279.441ZM309.875,250.369C312.27,251.098 314.716,251.459 317.149,251.459C321.177,251.459 325.169,250.47 328.824,248.521C340.924,242.066 345.519,226.969 339.067,214.868C339.066,214.865 339.064,214.862 339.062,214.859L278.203,101.097C271.748,88.995 256.647,84.4 244.546,90.857C232.446,97.313 227.853,112.411 234.311,124.519L295.168,238.279C298.294,244.141 303.517,248.435 309.875,250.369ZM251.134,103.209C252.76,102.342 254.508,101.931 256.234,101.931C260.126,101.931 263.897,104.023 265.855,107.694L326.713,221.454C329.534,226.746 327.525,233.347 322.234,236.169C316.942,238.991 310.341,236.982 307.515,231.684L246.658,117.924C243.836,112.632 245.845,106.031 251.134,103.209Z" style="fill:rgb(47,118,196);fill-rule:nonzero;"/>
                    <g transform="matrix(1.30044,0,0,1.30044,-36.8489,-4.93448)">
                        <path d="M96.021,49.933C110.755,49.933 122.717,61.895 122.717,76.629C122.717,91.363 110.755,103.325 96.021,103.325C81.287,103.325 69.325,91.363 69.325,76.629C69.325,61.895 81.287,49.933 96.021,49.933ZM96.021,63.281C103.388,63.281 109.369,69.262 109.369,76.629C109.369,83.996 103.388,89.977 96.021,89.977C88.654,89.977 82.673,83.996 82.673,76.629C82.673,69.262 88.654,63.281 96.021,63.281Z" style="fill:rgb(0,187,242);"/>
                    </g>
                    <g transform="matrix(1.30044,0,0,1.30044,39.6681,57.767)">
                        <path d="M96.021,49.933C110.755,49.933 122.717,61.895 122.717,76.629C122.717,91.363 110.755,103.325 96.021,103.325C81.287,103.325 69.325,91.363 69.325,76.629C69.325,61.895 81.287,49.933 96.021,49.933ZM96.021,63.281C103.388,63.281 109.369,69.262 109.369,76.629C109.369,83.996 103.388,89.977 96.021,89.977C88.654,89.977 82.673,83.996 82.673,76.629C82.673,69.262 88.654,63.281 96.021,63.281Z" style="fill:rgb(0,187,242);"/>
                    </g>
                    <g transform="matrix(1.30044,0,0,1.30044,-51.1959,122.063)">
                        <path d="M96.021,49.933C110.755,49.933 122.717,61.895 122.717,76.629C122.717,91.363 110.755,103.325 96.021,103.325C81.287,103.325 69.325,91.363 69.325,76.629C69.325,61.895 81.287,49.933 96.021,49.933ZM96.021,63.281C103.388,63.281 109.369,69.262 109.369,76.629C109.369,83.996 103.388,89.977 96.021,89.977C88.654,89.977 82.673,83.996 82.673,76.629C82.673,69.262 88.654,63.281 96.021,63.281Z" style="fill:rgb(0,187,242);"/>
                    </g>
                </g>
            </g>
        </g>
    </g>
</svg>
