<?xml version="1.0" encoding="UTF-8" standalone="no"?>
<!DOCTYPE svg PUBLIC "-//W3C//DTD SVG 1.1//EN" "http://www.w3.org/Graphics/SVG/1.1/DTD/svg11.dtd">
<svg width="100%" height="100%" viewBox="0 0 21 21" version="1.1" xmlns="http://www.w3.org/2000/svg" xmlns:xlink="http://www.w3.org/1999/xlink" xml:space="preserve" style="fill-rule:evenodd;clip-rule:evenodd;stroke-linejoin:round;stroke-miterlimit:2;">
    <g transform="matrix(1,0,0,1,-1020.34,-8319.85)">
        <g transform="matrix(1,0,0,1,497.552,8283.77)">
            <g id="Call" transform="matrix(0.642354,0,0,0.642354,533.069,46.3567)">
                <g transform="matrix(1,0,0,1,-16,-16)">
                    <g transform="matrix(1,0,0,1,96,384)">
                        <path d="M-65.224,-359.142L-65.371,-359.587C-65.724,-360.632 -66.875,-361.722 -67.934,-362.009L-71.852,-363.079C-72.915,-363.368 -74.43,-362.979 -75.206,-362.202L-76.624,-360.784C-81.777,-362.177 -85.818,-366.218 -87.21,-371.37L-85.792,-372.788C-85.015,-373.565 -84.626,-375.079 -84.914,-376.142L-85.982,-380.062C-86.271,-381.125 -87.363,-382.276 -88.406,-382.625L-88.853,-382.775C-89.898,-383.123 -91.388,-382.771 -92.166,-381.994L-94.286,-379.871C-94.666,-379.494 -94.907,-378.416 -94.907,-378.412C-94.981,-371.678 -92.342,-365.187 -87.577,-360.426C-82.825,-355.674 -76.361,-353.037 -69.646,-353.094C-69.611,-353.094 -68.501,-353.332 -68.123,-353.709L-66.003,-355.83C-65.228,-356.604 -64.875,-358.097 -65.224,-359.142Z" style="fill:white;fill-rule:nonzero;"/>
                    </g>
                </g>
            </g>
        </g>
    </g>
</svg>
