<?xml version="1.0" encoding="UTF-8" standalone="no"?>
<!DOCTYPE svg PUBLIC "-//W3C//DTD SVG 1.1//EN" "http://www.w3.org/Graphics/SVG/1.1/DTD/svg11.dtd">
<svg width="100%" height="100%" viewBox="0 0 20 20" version="1.1" xmlns="http://www.w3.org/2000/svg" xmlns:xlink="http://www.w3.org/1999/xlink" xml:space="preserve" xmlns:serif="http://www.serif.com/" style="fill-rule:evenodd;clip-rule:evenodd;stroke-linecap:round;stroke-linejoin:round;stroke-miterlimit:1.5;">
    <g transform="matrix(1,0,0,1,-481,-18)">
        <g transform="matrix(1,0,0,1,-376.356,-3842)">
            <g id="Menu_burger_hover" transform="matrix(0.0633622,0,0,0.0633622,866.86,3869.5)">
                <g transform="matrix(1,0,0,1,-150,-150)">
                    <g transform="matrix(1,0,0,1,-25.4628,-1.86378)">
                        <g transform="matrix(2.41537,2.41537,-2.41537,2.41537,-774.893,-958.912)">
                            <path d="M453.34,33.721C453.34,31.663 451.67,29.993 449.612,29.993L403.728,29.993C401.671,29.993 400,31.663 400,33.721C400,35.779 401.671,37.449 403.728,37.449L449.612,37.449C451.67,37.449 453.34,35.779 453.34,33.721Z" style="fill:rgb(0,187,242);"/>
                        </g>
                        <g transform="matrix(-2.41537,2.41537,2.41537,2.41537,1123.34,-958.912)">
                            <path d="M453.34,33.721C453.34,31.663 451.67,29.993 449.612,29.993L403.728,29.993C401.671,29.993 400,31.663 400,33.721C400,35.779 401.671,37.449 403.728,37.449L449.612,37.449C451.67,37.449 453.34,35.779 453.34,33.721Z" style="fill:rgb(0,187,242);"/>
                        </g>
                    </g>
                    <g transform="matrix(16.2121,0,0,16.2121,-22896.7,-959.289)">
                        <circle cx="1421.5" cy="68.5" r="8.5" style="fill:none;stroke:rgb(0,187,242);stroke-width:0.99px;"/>
                    </g>
                </g>
            </g>
        </g>
    </g>
</svg>
