<?xml version="1.0" encoding="UTF-8" standalone="no"?><!DOCTYPE svg PUBLIC "-//W3C//DTD SVG 1.1//EN" "http://www.w3.org/Graphics/SVG/1.1/DTD/svg11.dtd"><svg width="100%" height="100%" viewBox="0 0 500 500" version="1.1" xmlns="http://www.w3.org/2000/svg" xmlns:xlink="http://www.w3.org/1999/xlink" xml:space="preserve" style="fill-rule:evenodd;clip-rule:evenodd;stroke-linecap:round;stroke-linejoin:round;stroke-miterlimit:1.5;"><g id="Location"><g id="Location1" ><path d="M242.861,302.287c26.624,0 22.975,-1.773 38.703,-0.351c95.452,8.631 184.049,44.481 184.049,84.213c0,46.279 -96.613,83.851 -215.613,83.851c-119,0 -215.613,-37.572 -215.613,-83.851c0,-40.344 66.893,-73.579 164.564,-81.565c14.367,-1.175 17.286,-2.297 43.91,-2.297Z" style="fill:none;stroke:#00bbf2;stroke-width:24px;"/><path d="M156.546,150.618c-3.418,-10.006 -5.273,-20.734 -5.273,-31.891c0,-54.489 44.238,-98.727 98.727,-98.727c54.489,0 98.727,44.238 98.727,98.727c0,12.594 -2.363,24.641 -6.671,35.72l-74.881,222.618c-2.654,7.631 -9.848,12.746 -17.928,12.746c-8.079,0 -15.273,-5.115 -17.927,-12.746l-74.774,-226.447Zm93.454,-84.392c30.616,0 55.472,24.856 55.472,55.472c0,30.616 -24.856,55.472 -55.472,55.472c-30.616,0 -55.472,-24.856 -55.472,-55.472c0,-30.616 24.856,-55.472 55.472,-55.472Z" style="fill:#00bbf2;"/></g></g></svg>