<?xml version="1.0" encoding="UTF-8" standalone="no"?>
<!DOCTYPE svg PUBLIC "-//W3C//DTD SVG 1.1//EN" "http://www.w3.org/Graphics/SVG/1.1/DTD/svg11.dtd">
<svg width="100%" height="100%" viewBox="0 0 53 39" version="1.1" xmlns="http://www.w3.org/2000/svg" xmlns:xlink="http://www.w3.org/1999/xlink" xml:space="preserve" style="fill-rule:evenodd;clip-rule:evenodd;stroke-linecap:round;stroke-linejoin:round;stroke-miterlimit:1.5;">
    <g transform="matrix(1,0,0,1,-375,-8316.38)">
        <g transform="matrix(1,0,0,1,0.336269,-363.122)">
            <g id="Logo" transform="matrix(1.10145,0,0,1.09547,-487.592,7027)">
                <g transform="matrix(1.05589,0,0,1.05589,-44.8992,-85.7975)">
                    <path d="M828.926,1542.33C828.926,1542.33 825.293,1537.29 824.111,1536.11C824.002,1536 823.241,1538.03 819.954,1538.03C816.667,1538.03 805.892,1538.28 805.892,1538.28L802.268,1541.45L796.167,1542.39" style="fill:rgb(252,252,252);"/>
                </g>
                <g transform="matrix(1.25345,0,0,1,-215.53,0.311051)">
                    <path d="M807.366,1508.63C807.366,1508.63 796.859,1521.57 796.859,1529.24C796.859,1536.55 801.567,1542.48 807.366,1542.48C813.166,1542.48 817.874,1536.55 817.874,1529.24C817.874,1521.57 807.366,1508.63 807.366,1508.63Z" style="fill:none;stroke:rgb(252,252,252);stroke-width:0.8px;"/>
                </g>
                <g transform="matrix(1.05589,0,0,1.05589,-44.9775,-85.1146)">
                    <path d="M810.267,1529.08L818.507,1529.08C818.507,1529.08 818.878,1527.21 819.844,1526.31C820.311,1525.8 820.98,1525.49 821.722,1525.49C823.133,1525.49 824.279,1526.63 824.279,1528.04C824.279,1528.49 824.163,1528.91 823.96,1529.28C823.902,1529.42 822.824,1531.24 822.824,1533.59C822.824,1535.3 822.5,1536.36 817.842,1536.38L807.982,1536.38C809.389,1534.31 810.238,1531.79 810.267,1529.08Z" style="fill:rgb(252,252,252);"/>
                </g>
                <g transform="matrix(1.05589,0,0,1.05589,-45.8798,-85.1146)">
                    <path d="M807.982,1536.38L801.089,1536.38C796.439,1536.38 796.107,1535.38 796.107,1533.59C796.107,1531.28 795.029,1529.42 794.972,1529.28C794.768,1528.91 794.652,1528.49 794.652,1528.04C794.652,1526.63 795.798,1525.49 797.209,1525.49C797.951,1525.49 798.62,1525.8 799.088,1526.31C800.054,1527.21 800.424,1529.08 800.424,1529.08L810.267,1529.08C810.224,1531.77 809.393,1534.27 807.982,1536.38Z" style="fill:white;"/>
                </g>
                <g transform="matrix(1.05589,0,0,1.05589,-44.9775,-84.932)">
                    <path d="M805.524,1517.9L819.127,1517.9C821.971,1517.9 822.442,1520.12 822.442,1523.28C822.442,1523.58 822.276,1524.19 822.276,1524.19C822.276,1524.19 822.215,1524.19 822.108,1524.18C820.752,1524.05 818.463,1524.32 817.544,1527.6L810.231,1527.6C809.968,1524.7 807.946,1521.17 805.524,1517.9Z" style="fill:rgb(252,252,252);"/>
                </g>
                <g transform="matrix(1.05589,0,0,1.05589,-45.8798,-84.9398)">
                    <path d="M805.524,1517.9C807.957,1521.15 810.005,1524.7 810.231,1527.6L809.466,1527.6C807.968,1527.6 801.396,1527.63 801.388,1527.6C800.468,1524.32 798.179,1524.05 796.823,1524.18C796.716,1524.19 796.655,1524.19 796.655,1524.19C796.655,1524.19 796.489,1523.58 796.489,1523.28C796.489,1520.2 797.148,1517.9 799.804,1517.9L805.524,1517.9Z" style="fill:white;"/>
                </g>
                <g transform="matrix(0.409086,0,0,0.409086,469.36,900.292)">
                    <path d="M782.893,1517.39C782.959,1517.05 783.262,1516.8 783.613,1516.8C783.965,1516.8 784.267,1517.05 784.334,1517.39L785.266,1522.22L790.103,1523.15C790.448,1523.21 790.698,1523.52 790.698,1523.87C790.698,1524.22 790.448,1524.52 790.103,1524.59L785.266,1525.52L784.334,1530.34C784.267,1530.69 783.965,1530.93 783.613,1530.93C783.262,1530.93 782.959,1530.69 782.893,1530.34L781.96,1525.52L777.123,1524.59C776.778,1524.52 776.528,1524.22 776.528,1523.87C776.528,1523.52 776.778,1523.21 777.123,1523.15L781.96,1522.22L782.893,1517.39Z" style="fill:white;"/>
                </g>
            </g>
        </g>
    </g>
</svg>
