<?xml version="1.0" encoding="UTF-8" standalone="no"?>
<!DOCTYPE svg PUBLIC "-//W3C//DTD SVG 1.1//EN" "http://www.w3.org/Graphics/SVG/1.1/DTD/svg11.dtd">
<svg width="100%" height="100%" viewBox="0 0 32 23" version="1.1" xmlns="http://www.w3.org/2000/svg" xmlns:xlink="http://www.w3.org/1999/xlink" xml:space="preserve" xmlns:serif="http://www.serif.com/" style="fill-rule:evenodd;clip-rule:evenodd;stroke-linecap:round;stroke-linejoin:round;stroke-miterlimit:1.5;">
    <g transform="matrix(1,0,0,1,-900.845,-3103.5)">
        <g transform="matrix(1,0,0,1,286.618,2324.65)">
            <g id="Arrow" transform="matrix(-1,0,0,1,1351.38,-1.15483)">
                <g transform="matrix(1,0,0,1,-1.80049,1)">
                    <g transform="matrix(3.99147e-17,-0.651856,0.565514,3.46277e-17,257.269,1406.28)">
                        <path d="M930,840L945.383,850" style="fill:none;stroke:rgb(47,118,196);stroke-width:3.28px;"/>
                    </g>
                    <g transform="matrix(3.99147e-17,-0.651856,-0.565514,-3.46277e-17,1212.99,1396.25)">
                        <path d="M930,840L945.383,850" style="fill:none;stroke:rgb(47,118,196);stroke-width:3.28px;"/>
                    </g>
                </g>
                <g transform="matrix(0.806216,0,0,1,141.462,-0.323166)">
                    <rect x="700" y="790" width="30" height="2.696" style="fill:rgb(47,118,196);"/>
                </g>
            </g>
        </g>
    </g>
</svg>
