<?xml version="1.0" encoding="UTF-8" standalone="no"?><!DOCTYPE svg PUBLIC "-//W3C//DTD SVG 1.1//EN" "http://www.w3.org/Graphics/SVG/1.1/DTD/svg11.dtd"><svg width="100%" height="100%" viewBox="0 0 500 500" version="1.1" xmlns="http://www.w3.org/2000/svg" xmlns:xlink="http://www.w3.org/1999/xlink" xml:space="preserve" style="fill-rule:evenodd;clip-rule:evenodd;stroke-linecap:round;stroke-linejoin:round;stroke-miterlimit:1.5;"><g id="Time"><circle cx="245" cy="240" r="215" style="fill:none;stroke:#00bbf2;stroke-width:24px;"/><g><path d="M240.037,78.75c-9.179,0 -16.631,7.452 -16.631,16.631l0,148.381c0,9.178 7.452,16.63 16.631,16.63c9.179,0 16.631,-7.452 16.631,-16.63l0,-148.381c0,-9.179 -7.452,-16.631 -16.631,-16.631Z" style="fill:#00bbf2;"/><path d="M326.764,330.386c6.49,-6.49 6.49,-17.029 0,-23.519l-74.971,-74.97c-6.49,-6.491 -17.029,-6.491 -23.519,0c-6.49,6.49 -6.49,17.029 0,23.519l74.97,74.97c6.491,6.491 17.029,6.491 23.52,0Z" style="fill:#00bbf2;"/></g></g></svg>