<?xml version="1.0" encoding="UTF-8" standalone="no"?><!DOCTYPE svg PUBLIC "-//W3C//DTD SVG 1.1//EN" "http://www.w3.org/Graphics/SVG/1.1/DTD/svg11.dtd"><svg width="100%" height="100%" viewBox="0 0 60 60" version="1.1" xmlns="http://www.w3.org/2000/svg" xmlns:xlink="http://www.w3.org/1999/xlink" xml:space="preserve" style="fill-rule:evenodd;clip-rule:evenodd;stroke-linejoin:round;stroke-miterlimit:2;"><g id="mail"><path d="M30,60c16.569,0 30,-13.431 30,-30c0,-16.569 -13.431,-30 -30,-30c-16.569,0 -30,13.431 -30,30c0,16.569 13.431,30 30,30Z" style="fill:#00bbf2;"/><path d="M30,33.462l17.308,-15l-34.616,0l17.308,15Zm-4.675,-1.661l4.675,3.837l4.602,-3.837l12.706,10.891l-34.616,0l12.633,-10.891Zm-13.787,9.737l0,-21.923l12.693,10.962l-12.693,10.961Zm36.924,0l0,-21.923l-12.693,10.962l12.693,10.961Z" style="fill:#fff;"/></g></svg>