<?xml version="1.0" encoding="UTF-8" standalone="no"?><!DOCTYPE svg PUBLIC "-//W3C//DTD SVG 1.1//EN" "http://www.w3.org/Graphics/SVG/1.1/DTD/svg11.dtd"><svg width="100%" height="100%" viewBox="0 0 128 128" version="1.1" xmlns="http://www.w3.org/2000/svg" xmlns:xlink="http://www.w3.org/1999/xlink" xml:space="preserve" style="fill-rule:evenodd;clip-rule:evenodd;stroke-linejoin:round;stroke-miterlimit:2;"><g id="WhatsApp"><path d="M63.982,0l0,0.002l0.037,0c35.282,0 63.981,28.707 63.981,63.999c0,35.29 -28.699,63.999 -63.981,63.999c-13.015,0 -25.089,-3.875 -35.207,-10.572c0,0 -5.362,-3.23 -8.881,-6.674c-3.345,-3.273 -7.744,-9.243 -7.744,-9.243c-7.673,-10.535 -12.187,-23.516 -12.187,-37.512c0,-35.264 28.654,-63.953 63.981,-63.999l0.001,0Z" style="fill:#00bbf2;"/><path d="M46.114,32.509c-1.241,-2.972 -2.182,-3.085 -4.062,-3.161c-0.64,-0.037 -1.353,-0.074 -2.144,-0.074c-2.446,0 -5.003,0.715 -6.546,2.295c-1.88,1.919 -6.545,6.396 -6.545,15.576c0,9.181 6.695,18.06 7.598,19.303c0.941,1.24 13.053,20.354 31.86,28.144c14.707,6.095 19.071,5.53 22.418,4.816c4.89,-1.053 11.021,-4.667 12.564,-9.03c1.542,-4.365 1.542,-8.09 1.09,-8.88c-0.451,-0.79 -1.693,-1.24 -3.573,-2.182c-1.88,-0.941 -11.021,-5.456 -12.751,-6.058c-1.693,-0.639 -3.31,-0.413 -4.588,1.393c-1.806,2.521 -3.573,5.08 -5.003,6.622c-1.128,1.204 -2.972,1.355 -4.514,0.715c-2.069,-0.864 -7.861,-2.898 -15.008,-9.256c-5.53,-4.928 -9.291,-11.06 -10.381,-12.904c-1.091,-1.881 -0.113,-2.973 0.752,-3.988c0.941,-1.167 1.843,-1.994 2.783,-3.086c0.941,-1.091 1.467,-1.655 2.069,-2.935c0.64,-1.241 0.188,-2.521 -0.263,-3.462c-0.452,-0.943 -4.213,-10.124 -5.756,-13.848Z" style="fill:#fff;"/></g></svg>