<?xml version="1.0" encoding="UTF-8" standalone="no"?><!DOCTYPE svg PUBLIC "-//W3C//DTD SVG 1.1//EN" "http://www.w3.org/Graphics/SVG/1.1/DTD/svg11.dtd"><svg width="100%" height="100%" viewBox="0 0 100 100" version="1.1" xmlns="http://www.w3.org/2000/svg" xmlns:xlink="http://www.w3.org/1999/xlink" xml:space="preserve" style="fill-rule:evenodd;clip-rule:evenodd;stroke-linecap:round;stroke-linejoin:round;stroke-miterlimit:1.5;"><g><circle cx="52" cy="50.313" r="44.313" style="fill:none;stroke:#2f76c4;stroke-width:4px;"/><g id="Picture"><path d="M74.248,26.495l-44.496,0c-0.997,0 -1.815,0.819 -1.815,1.816l0,43.889c0,0.997 0.818,1.816 1.815,1.816l44.496,0c0.997,0 1.814,-0.819 1.814,-1.816l0,-43.889c0,-0.997 -0.817,-1.816 -1.814,-1.816Zm-3.31,35.961l-38.407,0l0,-31.063l38.407,0l0,31.063Z" style="fill:#2f76c4;fill-rule:nonzero;"/><circle cx="39.932" cy="39.319" r="5.334" style="fill:#2f76c4;"/><path d="M59.003,42.033c-0.938,-1.68 -2.542,-1.72 -3.564,-0.087l-5.025,8.027c-1.022,1.633 -3.057,2.151 -4.523,1.151c-1.469,-0.999 -3.686,-0.616 -4.932,0.851l-5.005,5.899c-1.246,1.47 -0.689,2.669 1.236,2.669l28.661,0c1.925,0 2.732,-1.374 1.792,-3.056l-8.64,-15.454Z" style="fill:#2f76c4;fill-rule:nonzero;"/></g></g></svg>